<svg width="456" height="456" viewBox="0 0 456 456" fill="none" xmlns="http://www.w3.org/2000/svg">
<path d="M0 83.0169C16.8738 100.984 16.3381 132.967 16.3381 132.967C16.3381 132.967 13.6764 180.881 40.6958 190.216C67.7156 199.55 102.429 205.348 108.227 223.653C114.024 241.995 101.481 288.959 123.651 295.049C145.857 301.174 170.288 298.586 169.959 318.532C169.632 338.478 181.847 355.177 216.596 353.901C251.311 352.625 297.327 354.558 294.411 310.51C291.53 266.425 332.041 278.64 347.173 263.216C362.269 247.791 336.854 209.178 364.202 184.418C391.55 159.659 419.19 144.564 419.845 116.559C420.501 88.5918 427.248 79.2572 447.194 66.0937C454.519 61.2363 454.791 49.6163 456 36.9062V0H0V83.0169Z" fill="#FFF5DA"/>
<path fill-rule="evenodd" clip-rule="evenodd" d="M286.195 168.469C286.195 168.469 266.558 158.841 268.756 167.8C270.947 176.776 291.45 173.389 286.195 168.469ZM304.981 145.605C317.699 146.731 291.941 173.878 288.674 171.023C286.317 168.985 297.017 144.892 304.981 145.605ZM283.265 156.551C283.265 156.551 283.092 134.709 276.04 140.686C268.988 146.66 281.216 163.434 283.265 156.551Z" fill="#9BC53F"/>
<path fill-rule="evenodd" clip-rule="evenodd" d="M333.205 67.7157C320.5 67.5961 343.913 38.5013 347.378 41.0888C349.877 42.9342 341.161 67.7975 333.205 67.7157Z" fill="#9BC53F"/>
<path fill-rule="evenodd" clip-rule="evenodd" d="M125.213 125.272C119.745 136.825 103.231 103.163 107.041 101.091C109.768 99.5874 128.643 118.041 125.213 125.272Z" fill="#9BC53F"/>
<path fill-rule="evenodd" clip-rule="evenodd" d="M145.128 63.7191C140.702 73.0507 127.334 45.8622 130.417 44.188C132.625 42.9744 147.906 57.8785 145.128 63.7191Z" fill="#9BC53F"/>
<path fill-rule="evenodd" clip-rule="evenodd" d="M201.716 99.531C198.219 106.238 189.126 86.0016 191.434 84.8594C193.087 84.0298 203.91 95.3331 201.716 99.531Z" fill="#9BC53F"/>
<path d="M128.814 262.77C131.484 267.346 134.922 272.209 138.506 277.277C149.006 292.118 160.77 308.75 158.374 325.356L157.725 325.259C160.09 308.913 148.403 292.394 137.972 277.655C134.381 272.567 130.926 267.69 128.25 263.104L128.814 262.77Z" fill="#000209"/>
<path fill-rule="evenodd" clip-rule="evenodd" d="M130.508 266.822C130.508 266.822 120.104 263.02 121.688 267.41C123.27 271.809 133.417 269.018 130.508 266.822ZM138.752 254.325C145.218 254.217 133.69 269.238 131.893 267.975C130.596 267.076 134.703 254.388 138.752 254.325ZM142.424 264.216C148.573 262.137 142.215 279.959 140.109 279.315C138.592 278.845 138.569 265.517 142.424 264.216ZM125.132 275.28C124.277 269.524 139.056 277.981 138.143 279.733C137.484 280.993 125.666 278.876 125.132 275.28ZM131.599 289.577C131.46 280.96 147.327 288.033 146.906 290.194C146.613 291.752 131.671 293.626 131.599 289.577ZM149.837 273.807C155.985 271.729 149.636 289.552 147.531 288.909C146.014 288.439 145.99 275.11 149.837 273.807ZM155.853 285.243C166.28 286.59 155.31 300.981 153.225 300.282C151.713 299.783 151.82 284.719 155.853 285.243ZM139.336 303.236C138.834 293.791 153.432 301.149 153.148 303.112C152.951 304.53 139.534 306.886 139.336 303.236ZM128.397 260.983C128.397 260.983 127.146 250.004 123.913 253.384C120.679 256.764 127.732 264.554 128.397 260.983Z" fill="#9BC53F"/>
<path d="M306.543 257.868C305.052 261.424 303.019 265.289 300.9 269.32C294.689 281.118 287.731 294.342 291.355 305.52L291.829 305.36C288.258 294.358 295.171 281.224 301.34 269.506C303.462 265.46 305.507 261.582 307.002 258.017L306.543 257.868Z" fill="#000209"/>
<path fill-rule="evenodd" clip-rule="evenodd" d="M305.581 261.008C305.581 261.008 312.892 256.893 312.2 260.162C311.509 263.438 303.662 262.945 305.581 261.008ZM298.075 253.514C293.259 254.358 303.483 263.136 304.68 262.005C305.543 261.197 301.092 252.982 298.075 253.514ZM296.438 260.896C291.64 260.328 298.332 271.784 299.825 271.038C300.901 270.496 299.447 261.25 296.438 260.896ZM310.509 266.109C310.509 261.997 300.461 269.963 301.332 271.048C301.962 271.828 310.509 268.679 310.509 266.109ZM307.282 276.946C306.434 270.948 295.425 278.11 295.976 279.55C296.366 280.587 307.675 279.763 307.282 276.946ZM291.989 268.601C287.191 268.033 293.875 279.492 295.369 278.747C296.444 278.204 294.991 268.958 291.989 268.601ZM288.78 277.387C281.181 279.805 290.921 288.225 292.393 287.444C293.462 286.883 291.72 276.451 288.78 277.387ZM303.04 287.518C302.371 280.896 292.335 288.075 292.762 289.395C293.065 290.351 303.296 290.077 303.04 287.518ZM306.505 256.658C306.505 256.658 306.222 248.868 308.999 250.752C311.775 252.636 307.394 259.041 306.505 256.658Z" fill="#9BC53F"/>
<path d="M187.725 363.18C187.725 363.18 157.182 342.182 152.982 323.975L162.434 328.687C162.434 328.687 145.804 311.739 149.705 294.443L157.585 300.536C157.585 300.536 147.697 281.898 158.976 267.558C158.976 267.558 173.722 282.366 174.142 298.689C174.142 298.689 176.173 292.245 177.96 286.883C177.96 286.883 188.978 299.11 187.478 319.285L192.182 309.846C192.182 309.846 197.362 368.705 187.725 363.18Z" fill="#1D5D67"/>
<path d="M172.532 319.352C172.492 319.317 172.451 319.281 172.41 319.246C166.365 302.545 161.34 285.804 160.4 274.266L159.211 274.17C160.127 285.411 164.884 301.533 170.692 317.763C165.189 313.108 158.409 308.128 158.33 308.07L157.662 308.836C157.748 308.899 165.768 314.79 171.394 319.713C174.341 327.84 177.523 335.946 180.591 343.431C174.915 338.476 166.911 332.595 166.826 332.532L166.159 333.299C166.249 333.366 175.262 339.987 180.881 345.057L181.482 345.597C189.149 364.15 195.866 378.389 196.018 378.708L197.106 378.442C196.952 378.117 189.988 363.353 182.154 344.321C183.107 342.335 185.96 336.207 188.355 329.145L187.207 328.697C185.144 334.783 182.739 340.168 181.52 342.778C178.703 335.892 175.795 328.496 173.069 321.054L173.329 320.533C173.33 320.533 173.33 320.531 173.331 320.531C173.416 320.358 176.971 313.199 179.86 304.681L178.712 304.234C176.316 311.3 173.46 317.424 172.532 319.352Z" fill="#1B5156"/>
<path d="M286.658 261.06C286.658 261.06 281.362 269.111 279.314 271.753C277.265 274.396 275.786 275.758 274.908 277.561C274.027 279.363 274.25 280.97 274.25 280.97L278.251 291.177C278.251 291.177 274.31 287.614 272.621 285.109C270.931 282.603 267.917 278.078 267.001 276.779C266.087 275.48 265.061 273.377 265.061 273.377C265.061 273.377 263.546 286.381 263.319 289.633C263.092 292.883 263.632 295.351 263.79 296.388C263.832 296.661 266.336 299.177 267.216 301.025C268.013 302.694 267.008 304.613 267.008 304.613L265.699 302.905L261.92 297.975C261.92 297.975 259.035 294.591 258.335 294.122C257.633 293.655 255.535 289.216 255.535 289.216C255.535 289.216 253.056 291.408 253.027 293.333C252.997 295.259 253.344 294.194 251.378 298.957C249.412 303.72 248.963 304.15 250.186 306.141C251.408 308.131 253.425 310.451 255.179 313.526C256.934 316.601 259.737 322.894 259.737 322.894C259.737 322.894 259.199 323.46 258.004 321.367C256.811 319.273 252.739 313.962 251.041 311.897C249.341 309.831 247.122 306.851 247.122 306.851C247.122 306.851 242.747 317.58 242.615 318.869C242.483 320.158 243.015 321.85 243.444 323.514C243.871 325.177 243.572 325.261 245.832 327.702C248.091 330.142 248.765 329.498 249.455 331.619C250.145 333.74 250.368 334.741 250.368 334.741C250.368 334.741 249.631 334.815 248.435 333.935C247.239 333.056 241.646 327.66 240.479 326.679C239.311 325.697 238.219 324.239 238.022 324.351C237.825 324.462 238.122 328.629 236.317 330.179C234.512 331.728 234.257 334.476 234.668 335.802C235.078 337.13 235.04 336.457 236.69 342.54C238.34 348.625 243.716 356.225 248.371 356.173C248.371 356.173 253.712 361.278 257.646 361.029C261.58 360.779 261.582 360.172 264.067 360.575C266.552 360.98 270.188 360.207 270.806 359.161C271.423 358.115 272.247 357.125 273.986 355.613C275.725 354.101 276.661 353.307 277.755 351.73C278.85 350.151 280.794 348.695 280.618 347.928C280.441 347.162 273.6 347.942 271.403 347.894C269.208 347.845 267.18 347.181 266.303 346.554C265.424 345.927 269.555 345.565 271.724 345.717C273.891 345.868 276.423 346.506 278.031 345.675C279.639 344.845 282.379 342.502 282.379 342.502C282.379 342.502 284.288 339.766 285.168 337.963C286.047 336.161 287.003 333.274 287.863 332.35C288.724 331.425 289.473 329.091 288.117 329.604C286.763 330.116 282.163 331.785 280.92 331.887C279.678 331.988 278.546 331.679 276.443 332.098C274.341 332.517 272.144 333.076 271.06 333C269.976 332.924 273.407 331.489 276.407 330.818C279.407 330.147 283.979 327.974 285.466 327.387C286.952 326.8 289.888 324.952 290.094 324.401C290.299 323.85 291.2 320.562 291.359 319.169C291.519 317.778 290.287 317.44 291.923 315.293C293.56 313.145 293.719 313.575 293.953 312.313C294.188 311.053 294.311 308.987 294.311 308.987C294.311 308.987 290.056 312.628 285.785 313.503C281.513 314.379 277.335 316.327 277.466 315.646C277.597 314.963 281.636 312.313 283.777 311.352C285.918 310.392 289.285 307.779 290.8 305.873C292.315 303.969 294.598 300.673 294.272 299.645C293.945 298.616 294.633 292.675 294.884 292.358C295.138 292.04 297.3 287.165 297.066 286.604C296.834 286.043 295.338 285.855 294.75 286.19C294.161 286.527 285.446 291.929 285.446 291.929C285.446 291.929 286.195 290.201 287.477 288.951C288.758 287.699 291.08 282.647 291.155 282.17C291.229 281.694 290.804 276.994 289.348 274.442C287.893 271.891 287.054 268.9 287.139 267.377C287.225 265.854 287.243 265.583 287.282 264.434C287.319 263.285 287.649 261.275 286.658 261.06Z" fill="#1D5D67"/>
<path d="M268.347 348.799L268.222 347.903L253.466 349.959C256.254 346.162 258.817 342.114 261.166 337.945L276.535 335.804L276.411 334.909L261.719 336.955C264.441 332.032 266.87 326.957 269.022 321.947L284.559 319.783L284.434 318.887L269.435 320.977C271.448 316.22 273.21 311.535 274.738 307.108L274.887 307.056L274.821 306.867C274.878 306.699 274.935 306.533 274.992 306.367L286.938 298.001L286.421 297.261L275.481 304.922C280.525 289.834 282.758 278.241 282.806 277.985L281.919 277.818C281.87 278.078 279.563 290.058 274.342 305.488L268.646 289.118L267.793 289.416L273.868 306.875C272.368 311.218 270.643 315.807 268.677 320.467L259.916 305.101L259.132 305.548L268.233 321.512C266.05 326.601 263.58 331.758 260.806 336.753L251.894 321.122L251.109 321.57L260.29 337.673C257.934 341.838 255.364 345.879 252.568 349.661L243.705 334.117L242.92 334.564L251.978 350.451C249.09 354.277 245.966 357.823 242.592 360.945L243.206 361.608C246.623 358.445 249.785 354.853 252.709 350.977L268.347 348.799Z" fill="#1B5156"/>
<path d="M333.208 273.486C333.245 273.499 337.865 281.884 339.717 288.448C341.342 283.876 342.068 281.126 342.081 281.089L343.171 281.379C343.158 281.475 339.3 296.08 329.263 314.516C336.754 310.812 349.411 308.634 349.446 308.647L349.638 309.746C349.614 309.757 335.19 312.232 328.256 316.357C317.689 335.25 300.781 357.692 275.093 372.666L274.512 371.69C285.493 365.273 294.875 357.498 302.821 349.207C286.999 342.733 285.607 328.753 285.594 328.73L286.72 328.586C286.743 328.635 288.097 342.156 303.661 348.336C311.204 340.325 317.44 331.888 322.512 323.819C322.115 313.209 313.049 299.898 313.025 299.849L313.956 299.232C313.993 299.245 322.383 311.567 323.551 322.17C331.246 309.627 336.191 298.02 339.009 290.358C337.64 283.804 332.23 274.066 332.218 274.042L333.208 273.486Z" fill="#278742"/>
<mask id="mask0_33_571" style="mask-type:luminance" maskUnits="userSpaceOnUse" x="81" y="272" width="94" height="99">
<path d="M81.8521 272.574H174.99V370.386H81.8521V272.574Z" fill="white"/>
</mask>
<g mask="url(#mask0_33_571)">
<mask id="mask1_33_571" style="mask-type:luminance" maskUnits="userSpaceOnUse" x="81" y="272" width="94" height="99">
<path d="M98.6502 329.928C96.8832 327.5 99.8837 326.032 99.8837 326.032C102.393 324.963 108.86 326.86 108.907 332.293C108.964 337.705 100.395 332.344 98.6502 329.928ZM135.778 330.712C135.778 330.712 136.772 318.764 142.798 319.848C148.813 320.955 149.333 332.024 142.759 337.108C136.185 342.194 135.259 333.269 135.778 330.712ZM169.012 360.948C180.492 345.869 172.965 325.37 166.805 324.278C160.646 323.184 152.948 346.2 146.527 343.913C140.094 341.593 152.96 329.751 161.202 321.772C169.454 313.77 150.644 298.963 143.683 294.966C136.735 290.946 140.931 303.364 132.818 308.741C124.706 314.116 127.328 284.448 127.328 284.448C128.68 276.983 104.29 271.906 97.9426 272.785C91.5942 273.664 81.6107 283.239 85.3856 293.755C89.149 304.239 112.052 314.795 109.614 319.963C107.187 325.109 89.5929 306.151 84.4051 304.803C79.2506 303.443 82.4715 322.296 89.7604 330.954C97.0822 339.599 118.432 341.567 123.339 348.112C128.246 354.656 117.191 350.898 104.318 344.002C91.4793 337.094 90.6163 345.037 104.065 358.166C117.491 371.284 157.542 376.003 169.012 360.948Z" fill="white"/>
</mask>
<g mask="url(#mask1_33_571)">
<mask id="mask2_33_571" style="mask-type:luminance" maskUnits="userSpaceOnUse" x="81" y="272" width="94" height="99">
<path d="M98.6502 329.928C96.8832 327.5 99.8837 326.032 99.8837 326.032C102.393 324.963 108.86 326.86 108.907 332.293C108.964 337.705 100.395 332.344 98.6502 329.928ZM135.778 330.712C135.778 330.712 136.772 318.764 142.798 319.848C148.813 320.955 149.333 332.024 142.759 337.108C136.185 342.194 135.259 333.269 135.778 330.712ZM169.012 360.948C180.492 345.869 172.965 325.37 166.805 324.278C160.646 323.184 152.948 346.2 146.527 343.913C140.094 341.593 152.96 329.751 161.202 321.772C169.454 313.77 150.644 298.963 143.683 294.966C136.735 290.946 140.931 303.364 132.818 308.741C124.706 314.116 127.328 284.448 127.328 284.448C128.68 276.983 104.29 271.906 97.9426 272.785C91.5942 273.664 81.6107 283.239 85.3856 293.755C89.149 304.239 112.052 314.795 109.614 319.963C107.187 325.109 89.5929 306.151 84.4051 304.803C79.2506 303.443 82.4715 322.296 89.7604 330.954C97.0822 339.599 118.432 341.567 123.339 348.112C128.246 354.656 117.191 350.898 104.318 344.002C91.4793 337.094 90.6163 345.037 104.065 358.166C117.491 371.284 157.542 376.003 169.012 360.948Z" fill="white"/>
</mask>
<g mask="url(#mask2_33_571)">
<path d="M97.6776 232.842L220.658 290.853L162.065 415.068L39.0842 357.056L97.6776 232.842Z" fill="url(#paint0_linear_33_571)"/>
</g>
</g>
</g>
<path d="M119.672 291.156C119.638 291.167 115.382 298.916 113.676 304.982C112.18 300.757 111.511 298.216 111.499 298.182L110.494 298.449C110.507 298.538 114.06 312.036 123.306 329.072C116.405 325.65 104.748 323.637 104.715 323.649L104.538 324.665C104.56 324.676 117.846 326.962 124.233 330.776C133.966 348.234 149.54 368.974 173.2 382.812L173.736 381.91C163.622 375.98 154.98 368.793 147.661 361.132C162.234 355.149 163.517 342.23 163.528 342.208L162.492 342.077C162.47 342.121 161.222 354.617 146.887 360.327C139.939 352.924 134.194 345.127 129.524 337.671C129.888 327.865 138.241 315.562 138.261 315.518L137.404 314.949C137.372 314.96 129.643 326.347 128.567 336.147C121.479 324.555 116.923 313.828 114.328 306.747C115.589 300.691 120.573 291.691 120.583 291.668L119.672 291.156Z" fill="#278742"/>
<path fill-rule="evenodd" clip-rule="evenodd" d="M166.822 249.321C166.822 249.321 158.59 246.304 159.844 249.788C161.096 253.279 169.122 251.065 166.822 249.321ZM173.344 239.404C178.46 239.319 169.339 251.239 167.917 250.237C166.891 249.522 170.14 239.455 173.344 239.404ZM186.874 263.938C195.124 265.006 186.444 276.426 184.795 275.872C183.598 275.477 183.684 263.522 186.874 263.938ZM173.806 278.215C173.409 270.721 184.958 276.559 184.734 278.117C184.579 279.243 173.963 281.111 173.806 278.215ZM165.151 244.688C165.151 244.688 164.161 235.977 161.603 238.659C159.045 241.341 164.625 247.522 165.151 244.688Z" fill="#9BC53F"/>
<path fill-rule="evenodd" clip-rule="evenodd" d="M256.276 259.875C256.276 259.875 257.85 251.242 254.628 253.072C251.397 254.901 254.948 262.443 256.276 259.875ZM267.167 264.621C268.122 269.653 254.813 262.685 255.559 261.112C256.089 259.979 266.571 261.469 267.167 264.621ZM260.561 257.439C260.561 257.439 268.984 254.98 265.904 252.913C262.823 250.847 257.677 257.402 260.561 257.439Z" fill="#9BC53F"/>
<path fill-rule="evenodd" clip-rule="evenodd" d="M329.287 314.943C329.287 314.943 328.713 314.794 327.853 314.917C327.798 316.072 328.017 317.783 327.566 320.802C326.87 325.356 322.172 326.525 322.172 326.525L327.676 327.734C327.566 327.639 328.031 325.233 328.482 324.363C328.931 323.493 330.201 321.998 330.201 321.998C330.065 320.911 328.754 319.075 328.399 317.553C328.058 316.045 329.287 314.943 329.287 314.943ZM337.903 325.573C337.903 325.573 337.848 322.337 337.097 319.497C337.138 321.522 336.797 323.914 335.568 326.307C332.441 332.424 325.273 331.554 325.273 331.554C332.823 333.116 337.903 325.573 337.903 325.573ZM339.5 334.449C339.5 334.449 340.607 333.592 341.658 332.328C341.207 331.146 340.566 330.031 339.61 329.487C336.988 327.992 335.527 329.393 335.527 329.393C337.124 328.903 338.831 329.773 339.337 331.471C339.624 332.437 339.378 333.838 339.118 334.843C339.241 334.72 339.364 334.585 339.5 334.449ZM328.344 334.435C328.344 334.435 326.023 335.659 323.197 335.333C320.37 335.007 319.428 332.642 319.428 332.642C319.428 332.642 324.426 335.7 328.344 334.435Z" fill="#E0866B"/>
<path fill-rule="evenodd" clip-rule="evenodd" d="M246.924 414.768L257.066 416.556V416.433L257.053 416.406V416.296L257.039 416.255V416.147L257.025 416.119V416.01L257.012 415.982V415.859L256.998 415.832V415.737L256.984 415.71V415.573L256.971 415.546V415.45L256.957 415.409V415.273L256.943 415.232V415.122L256.929 415.081V414.973L256.916 414.932V414.809L256.902 414.768V414.644L256.888 414.603V414.564C256.588 410.933 256.192 404.04 257.134 400.477V400.463H257.147L257.175 400.355V400.341C257.189 400.3 257.202 400.259 257.216 400.218V400.205L257.23 400.164C257.243 400.095 257.271 400.028 257.298 399.959C257.298 399.959 257.025 396.192 257.23 395.565L255.071 394.785L253.321 394.554L246.924 414.768Z" fill="#A8CCE6"/>
<path fill-rule="evenodd" clip-rule="evenodd" d="M196.11 225.13C196.11 225.13 192.195 226.875 191.841 230.186C191.472 233.484 191.895 238.951 198.934 239.196C198.934 239.196 203.748 261.373 220.469 261.85C237.191 262.341 242.838 239.019 242.838 239.019C242.838 239.019 246.356 239.374 248.375 236.729C250.393 234.085 250.748 227.801 245.879 225.034C245.879 225.034 246.206 222.703 247.556 218.614C248.921 214.524 249.971 199.708 234.695 195.02C234.695 195.02 229.634 186.718 218.519 187.209C207.39 187.686 203.475 198.086 203.475 198.086L203.598 199.831C203.598 199.831 202.125 198.237 198.511 197.991C198.511 197.991 200.979 199.041 201.579 201.235C201.579 201.235 187.204 207.246 196.11 225.13Z" fill="#F4997E"/>
<path fill-rule="evenodd" clip-rule="evenodd" d="M141.36 332.609C141.36 332.609 145.221 335.555 145.576 340.55C145.93 345.544 143.175 356.131 143.175 356.131C143.175 356.131 149.969 356.009 160.009 353.785C170.063 351.561 175.411 351.015 177.757 346.444C180.103 341.874 189.858 315.034 189.858 315.034C189.858 315.034 187.566 363.049 186.365 370.514L217.524 380.76L255.312 366.775C255.312 366.775 252.897 330.247 252.597 325.186C252.296 320.138 252.365 309.181 252.365 309.181C252.365 309.181 261.069 337.302 263.743 342.842C266.416 348.368 273.974 348.886 280.59 349.419C287.207 349.965 296.401 351.589 298.338 351.084C298.338 351.084 296.892 338.981 297.083 332.895C297.275 327.301 297.451 326.155 297.451 326.155C297.451 326.155 288.066 325.186 282.65 326.208C282.65 326.208 270.863 297.037 265.803 291.619C260.754 286.203 246.022 278.862 238.069 278.862C238.069 278.862 238.41 277.47 238.041 276.87C237.686 276.269 233.443 270.798 233.443 270.798L231.493 270.211L231.63 271.589C231.63 271.589 223.294 273.335 222.898 273.909C222.516 274.482 220.797 285.193 220.797 285.193C220.797 285.193 219.201 275.205 218.751 274.128C218.302 273.036 209.938 271.807 209.938 271.807C210.02 271.398 210.116 270.743 210.212 269.952L208.329 270.947L203.991 276.61C203.991 276.61 203.54 277.634 203.568 278.684C203.568 278.684 187.566 281.659 180.772 288.577C173.978 295.495 160.377 329.92 159.354 330.576C158.331 331.244 141.36 332.609 141.36 332.609Z" fill="#2E3E55"/>
<path fill-rule="evenodd" clip-rule="evenodd" d="M186.405 370.492L145.785 356.904C145.785 356.904 141.816 355.526 138.338 356.85C134.846 358.172 130.236 360.614 128.381 364.408C126.512 368.199 125.312 375.171 130.359 381.31C135.419 387.45 162.003 397.545 162.003 397.545C162.003 397.545 163.381 394.366 164.65 393.043L169.014 393.397L169.492 394.189C169.492 394.189 172.561 394.488 179.149 398.609L197.154 403.806C197.154 403.806 203.114 414.57 204.138 414.871C205.16 415.171 216.822 411.023 217.013 410.846C217.19 410.669 217.491 409.727 217.491 409.727L232.345 414.188L231.867 416.044L245.221 420.204L253.337 394.516L255.083 394.747C255.083 394.747 256.583 391.337 259.816 392.183C259.816 392.183 264.835 389.945 271.491 390.805C271.491 390.805 275.46 389.7 277.779 389.973C277.779 389.973 281.08 392.074 284.027 392.675L310.133 377.817C310.133 377.817 319.763 370.833 316.272 359.769C312.779 348.705 300.572 350.383 295.102 352.252C289.619 354.107 255.342 366.754 255.342 366.754L217.56 380.737L186.405 370.492Z" fill="#374047"/>
<path fill-rule="evenodd" clip-rule="evenodd" d="M111.267 326.304C111.267 326.304 110.229 329.493 110.229 329.575C110.229 329.67 113.658 332.15 113.782 332.055C113.904 331.973 113.44 329.547 112.989 328.675C112.524 327.804 111.267 326.304 111.267 326.304ZM101.949 338.786C101.949 338.786 97.4946 335.366 98.0959 332.123C98.6967 328.866 102.14 328.839 103.547 329.889C103.547 329.889 103.643 324.098 105.392 321.209C107.141 318.333 110.748 317.911 112.169 319.233C112.169 319.233 115.243 318.443 117.566 321.999C119.876 325.541 125.176 328.934 128.593 330.134C131.217 331.061 139.031 333.472 143.309 334.617C144.347 335.979 145.467 338.009 145.659 340.599C145.904 343.937 144.743 349.755 143.95 353.257L138.827 353.203C138.827 353.203 129.55 354.524 122.977 350.328C116.418 346.117 110.215 347.493 101.949 338.786Z" fill="#F4997E"/>
<path fill-rule="evenodd" clip-rule="evenodd" d="M242.934 239.042C242.934 239.042 246.403 239.397 248.394 236.748C250.385 234.1 250.734 227.807 245.933 225.036L244.212 228.776C244.01 235.015 242.934 239.042 242.934 239.042Z" fill="#BF7260"/>
<path fill-rule="evenodd" clip-rule="evenodd" d="M196.108 225.15C196.108 225.15 192.195 226.89 191.841 230.19C191.472 233.479 191.895 238.928 198.93 239.172C198.384 237.134 197.975 229.498 197.975 229.498L196.108 225.15Z" fill="#BF7260"/>
<path fill-rule="evenodd" clip-rule="evenodd" d="M245.894 225.026C245.894 225.026 246.221 222.695 247.571 218.607C248.935 214.518 249.984 199.705 234.713 195.018C234.713 195.018 229.654 186.718 218.542 187.209C207.416 187.686 203.502 198.084 203.502 198.084L203.625 199.829C203.625 199.829 202.153 198.234 198.539 197.988C198.539 197.988 201.007 199.038 201.607 201.232C201.607 201.232 187.236 207.241 196.14 225.121L198.007 229.482C198.007 229.482 198.907 223.172 200.83 219.561C202.752 215.964 203.897 212.529 203.897 212.529C203.897 212.529 212.611 214.397 221.037 213.074C229.45 211.752 233.241 207.364 233.241 207.364C233.241 207.364 240.63 217.285 242.199 221.36C243.766 225.448 244.149 228.76 244.149 228.76L245.894 225.026Z" fill="#2E3E55"/>
<path d="M210.278 225.492C210.278 225.505 212.625 228.149 215.929 225.492L216.652 226.391C212.489 229.729 209.431 226.268 209.418 226.268L210.278 225.492ZM214.768 242.167C214.782 242.181 219.368 246.88 226.193 242.222L226.848 243.174C219.218 248.378 213.963 242.998 213.949 242.984L214.768 242.167ZM225.388 225.492C225.388 225.505 227.735 228.149 231.039 225.492L231.762 226.391C227.6 229.729 224.541 226.268 224.527 226.268L225.388 225.492Z" fill="#7B2214"/>
<path fill-rule="evenodd" clip-rule="evenodd" d="M211.296 259.008C210.997 262.795 210.383 269.905 209.988 271.866C209.988 271.866 218.339 273.092 218.788 274.182C219.237 275.258 220.831 285.228 220.831 285.228C220.831 285.228 222.548 274.536 222.929 273.963C223.324 273.391 231.648 271.648 231.648 271.648L230.367 259.008C227.616 260.86 224.36 262.019 220.505 261.895C216.908 261.8 213.871 260.683 211.296 259.008Z" fill="#F4997E"/>
<path fill-rule="evenodd" clip-rule="evenodd" d="M211.265 259.008C211.141 260.509 210.978 262.512 210.786 264.515C213.221 266.748 216.572 268.128 220.251 268.128C224.544 268.128 228.374 266.248 230.85 263.324L230.412 259.008C227.65 260.848 224.381 261.999 220.51 261.877C216.9 261.782 213.85 260.672 211.265 259.008Z" fill="#BF7260"/>
<path fill-rule="evenodd" clip-rule="evenodd" d="M220.941 379.506L217.512 380.78L244.758 389.082L241.369 386.342L220.941 379.506Z" fill="#242C2F"/>
<path fill-rule="evenodd" clip-rule="evenodd" d="M232.395 414.191L231.918 416.046L245.274 420.204L253.391 394.528L254.292 390.804L241.426 386.291C237.785 396 232.395 414.191 232.395 414.191ZM197.197 403.814C197.197 403.814 203.158 414.573 204.182 414.874C205.205 415.173 216.869 411.027 217.06 410.851C217.237 410.673 217.538 409.732 217.538 409.732L197.197 403.814ZM277.839 389.986C277.839 389.986 281.141 392.086 284.088 392.687L305.862 380.304L277.839 389.986ZM138.396 386.96C148.014 392.237 162.039 397.555 162.039 397.555C162.039 397.555 162.994 395.346 164.044 393.846L138.396 386.96Z" fill="#242C2F"/>
<path fill-rule="evenodd" clip-rule="evenodd" d="M252.396 309.223C252.396 309.223 254.903 317.394 257.64 325.812C257.003 317.489 254.537 308.593 255.946 296.172C255.946 296.172 252.396 304.508 252.396 309.223Z" fill="#212E3F"/>
<path fill-rule="evenodd" clip-rule="evenodd" d="M185.478 327.066C187.882 320.609 189.889 315.083 189.889 315.083C190.271 307.355 187.39 299.478 187.39 299.478C188.087 308.176 186.611 319.857 185.478 327.066Z" fill="#212E3F"/>
<path fill-rule="evenodd" clip-rule="evenodd" d="M186.676 368.22C186.581 369.203 186.485 369.981 186.39 370.541L212.975 379.278L221.804 379.223L246.696 370.009C239.709 370.186 230.77 370.405 221.054 370.596C204.663 370.896 192.162 369.162 186.676 368.22Z" fill="#0C2B2D"/>
<path fill-rule="evenodd" clip-rule="evenodd" d="M213.522 379.278L221.795 379.223L228 376.941V370.5C225.739 370.541 223.411 370.595 221.042 370.636C218.439 370.676 215.932 370.676 213.522 370.636V379.278Z" fill="#384F83"/>
<path fill-rule="evenodd" clip-rule="evenodd" d="M285.659 350.007C291.2 350.675 296.864 351.521 298.338 351.139C298.338 351.139 296.892 339.043 297.082 332.96C297.274 327.369 297.451 326.224 297.451 326.224C297.451 326.224 291.445 325.609 286.273 325.882C285.372 331.856 284.526 340.924 285.659 350.007Z" fill="#242C2F"/>
<path fill-rule="evenodd" clip-rule="evenodd" d="M141.36 332.677C141.36 332.677 145.24 335.616 145.596 340.597C145.952 345.577 143.184 356.136 143.184 356.136C143.184 356.136 148.708 356.041 157.179 354.408C157.81 346.896 156.192 337.344 154.959 331.398C149.599 332.023 141.36 332.677 141.36 332.677Z" fill="#242C2F"/>
<path fill-rule="evenodd" clip-rule="evenodd" d="M219.775 278.825C219.461 277.082 219.161 275.449 218.942 274.626C217.973 277.371 215.978 282.16 213.67 282.544C210.419 283.092 208.835 281.967 203.604 278.743C207.702 282.626 211.868 283.97 213.643 283.422C216.73 282.461 218.711 280.334 219.775 278.825ZM238.146 278.921C238.146 278.921 231.153 283.092 227.875 282.544C225.649 282.173 223.695 277.673 222.698 274.888C222.479 275.847 222.193 277.398 221.906 279.004C222.999 280.513 224.938 282.502 227.916 283.422C231.713 284.602 236.315 280.499 238.146 278.921Z" fill="#212E3F"/>
<path fill-rule="evenodd" clip-rule="evenodd" d="M112.166 319.162C112.166 319.162 112.75 319.011 113.593 319.135C113.647 320.296 113.43 322.019 113.892 325.053C114.586 329.632 119.248 330.807 119.248 330.807L113.77 332.024C113.892 331.942 113.43 329.509 112.981 328.634C112.519 327.76 111.269 326.256 111.269 326.256C111.405 325.176 112.709 323.318 113.049 321.8C113.389 320.269 112.166 319.162 112.166 319.162ZM103.588 329.852C103.588 329.852 103.643 326.598 104.404 323.741C104.363 325.777 104.689 328.184 105.913 330.59C109.039 336.739 116.163 335.865 116.163 335.865C108.645 337.437 103.588 329.852 103.588 329.852ZM101.998 338.776C101.998 338.776 100.897 337.915 99.864 336.658C100.299 335.455 100.951 334.334 101.903 333.788C104.513 332.283 105.967 333.705 105.967 333.705C104.377 333.199 102.664 334.074 102.175 335.783C101.889 336.753 102.134 338.161 102.392 339.172C102.256 339.05 102.134 338.913 101.998 338.776ZM113.117 338.762C113.117 338.762 115.415 339.992 118.242 339.665C121.056 339.337 121.98 336.959 121.98 336.959C121.98 336.959 117.005 340.034 113.117 338.762Z" fill="#E0866B"/>
<path fill-rule="evenodd" clip-rule="evenodd" d="M330.181 321.975C330.181 321.975 331.217 325.163 331.217 325.245C331.217 325.341 327.781 327.819 327.659 327.725C327.55 327.63 328.013 325.218 328.463 324.346C328.912 323.474 330.181 321.975 330.181 321.975ZM339.466 334.455C339.466 334.455 343.912 331.036 343.312 327.78C342.712 324.537 339.29 324.51 337.871 325.558C337.871 325.558 337.775 319.767 336.044 316.88C334.299 313.991 330.685 313.582 329.268 314.903C329.268 314.903 326.213 314.114 323.895 317.656C321.577 321.212 316.286 324.604 312.891 325.804C310.04 326.812 301.081 329.55 297.196 330.559C297.168 331.226 297.141 332.003 297.1 332.902C296.964 337.385 297.714 345.164 298.11 348.911L302.664 348.87C302.664 348.87 311.923 350.192 318.481 345.995C325.04 341.786 331.231 343.161 339.466 334.455Z" fill="#F4997E"/>
<path fill-rule="evenodd" clip-rule="evenodd" d="M194.893 403.218C194.741 405.365 194.341 410.086 193.458 411.426L200.754 410.086C198.948 407.103 197.141 403.861 197.141 403.861L194.893 403.218Z" fill="#A8CCE6"/>
<path fill-rule="evenodd" clip-rule="evenodd" d="M193.52 411.413C193.52 411.413 192.824 413.696 191.473 414.31C190.123 414.912 188.703 414.31 188.703 414.31C188.703 414.31 180.46 415.363 177.458 417.345C174.442 419.34 167.346 424.096 161.383 421.499C161.383 421.499 157.247 409.227 161.996 397.582C161.996 397.582 163.375 394.398 164.644 393.072L169.011 393.427L169.489 394.22C169.489 394.22 172.559 394.52 179.15 398.648L194.94 403.213C194.789 405.358 194.393 410.074 193.52 411.413Z" fill="#F6F8EA"/>
<path fill-rule="evenodd" clip-rule="evenodd" d="M171.912 394.896C173.496 395.498 175.885 396.605 179.107 398.628L187.559 401.061C185.033 401.608 182.479 402.126 180.637 402.113C177.728 402.071 174.096 397.849 171.912 394.896ZM193.116 412.309C192.789 413.019 192.229 413.935 191.437 414.29C190.086 414.892 188.665 414.29 188.665 414.29C188.665 414.29 180.417 415.343 177.414 417.325C176.499 417.939 175.202 418.801 173.673 419.634C175.352 416.997 177.469 414.482 179.913 413.142C183.586 411.12 188.91 411.447 193.116 412.309Z" fill="#DEE0D3"/>
<path fill-rule="evenodd" clip-rule="evenodd" d="M167.123 422.099C165.206 422.4 163.249 422.304 161.388 421.498C161.388 421.498 157.24 409.226 162.003 397.582C162.003 397.582 163.386 394.398 164.659 393.072L169.039 393.427L169.518 394.22C169.518 394.22 161.291 404.661 167.123 422.099Z" fill="#DEE0D3"/>
<path fill-rule="evenodd" clip-rule="evenodd" d="M284.018 392.737C284.018 392.737 290.415 394.264 293.001 400.821C295.588 407.364 296.786 413.798 295.289 420.056C293.777 426.299 290.66 427.868 286.4 427.267C286.4 427.267 276.858 422.4 270.187 420.888C263.531 419.388 261.434 419.388 261.434 419.388C261.434 419.388 258.126 419.987 257.159 416.921C257.159 416.921 255.785 404.597 257.35 399.976C257.35 399.976 257.078 396.213 257.282 395.586L255.132 394.808C255.132 394.808 256.629 391.401 259.855 392.246C259.855 392.246 264.864 390.01 271.507 390.869C271.507 390.869 275.469 389.765 277.782 390.037C277.782 390.037 281.077 392.137 284.018 392.737Z" fill="#F6F8EA"/>
<path fill-rule="evenodd" clip-rule="evenodd" d="M280.535 424.536C277.352 423.159 273.423 421.619 270.172 420.884C263.523 419.385 261.428 419.385 261.428 419.385C261.428 419.385 258.123 419.984 257.157 416.918C257.157 416.918 257.063 415.991 256.94 414.561C265.944 413.02 274.293 417.026 276.659 420.079C277.87 421.647 279.351 423.282 280.535 424.536ZM284.316 396.98C281.759 398.629 278.768 401.464 276.958 403.426C274.674 405.892 267.058 405.17 263.101 404.448C260.829 404.039 258.64 402.091 257.185 400.496C257.239 400.319 257.293 400.141 257.348 399.978C257.348 399.978 257.076 396.217 257.28 395.59L255.132 394.812C255.132 394.812 256.628 391.406 259.851 392.251C259.851 392.251 264.855 390.016 271.491 390.874C271.491 390.874 280.617 394.513 284.316 396.98Z" fill="#DEE0D3"/>
<path fill-rule="evenodd" clip-rule="evenodd" d="M284.038 392.737C284.038 392.737 290.425 394.264 293.006 400.821C295.589 407.364 296.785 413.798 295.29 420.056C293.781 426.299 290.669 427.868 286.416 427.267C286.416 427.267 286.117 427.117 285.6 426.858C296.676 416.157 287.163 400.262 285.75 398.176C284.255 395.941 271.548 390.869 271.548 390.869C271.548 390.869 275.503 389.765 277.813 390.037C277.813 390.037 281.102 392.137 284.038 392.737Z" fill="#DEE0D3"/>
<path d="M265.533 402.571C265.669 402.19 266.091 401.974 266.487 402.11C266.883 402.245 267.088 402.666 266.952 403.059C266.952 403.073 263.936 411.707 267.306 417.082C267.525 417.435 267.416 417.897 267.061 418.115C266.706 418.332 266.256 418.223 266.023 417.87C262.285 411.883 265.533 402.598 265.533 402.571ZM268.74 402.529C268.903 402.15 269.34 401.96 269.722 402.122C270.104 402.286 270.282 402.72 270.131 403.1C270.117 403.128 266.542 411.489 270.432 417.815C270.65 418.168 270.541 418.616 270.186 418.834C269.831 419.051 269.367 418.943 269.163 418.589C264.863 411.612 268.726 402.557 268.74 402.529ZM272.97 402.571C273.134 402.19 273.585 402.028 273.953 402.19C274.335 402.367 274.498 402.816 274.335 403.182C274.321 403.209 269.872 412.63 274.267 419.159C274.498 419.499 274.404 419.961 274.062 420.191C273.72 420.422 273.257 420.327 273.025 419.988C268.152 412.752 272.956 402.598 272.97 402.571ZM179.199 400.276C179.035 399.91 179.199 399.462 179.581 399.299C179.95 399.123 180.4 399.285 180.563 399.666C180.577 399.693 184.849 408.748 179.758 415.508C179.513 415.834 179.049 415.901 178.708 415.658C178.38 415.413 178.312 414.938 178.557 414.611C183.102 408.557 179.213 400.304 179.199 400.276ZM182.064 401.173C181.942 400.779 182.16 400.372 182.556 400.249C182.952 400.127 183.374 400.345 183.484 400.738C183.498 400.766 186.091 408.964 182.924 413.987C182.706 414.327 182.242 414.436 181.901 414.218C181.547 414.001 181.437 413.539 181.655 413.2C184.454 408.761 182.064 401.2 182.064 401.173ZM184.808 401.39C184.671 401.009 184.863 400.575 185.259 400.44C185.641 400.29 186.078 400.494 186.213 400.887C186.227 400.9 188.643 407.282 185.763 413.132C185.586 413.512 185.136 413.662 184.767 413.485C184.385 413.296 184.235 412.848 184.413 412.481C187.019 407.214 184.808 401.417 184.808 401.39ZM188.398 412.67C188.219 413.051 187.783 413.214 187.401 413.037C187.019 412.875 186.855 412.427 187.019 412.06C187.032 412.046 189.175 407.498 188.67 401.43L190.198 401.878C190.567 408.055 188.398 412.657 188.398 412.67ZM261.875 402.19C262.025 401.81 262.448 401.607 262.844 401.756C263.225 401.905 263.417 402.34 263.28 402.72C263.266 402.747 260.333 410.295 263.895 416.58C264.099 416.934 263.964 417.394 263.608 417.599C263.239 417.788 262.79 417.667 262.584 417.3C258.682 410.417 261.861 402.217 261.875 402.19Z" fill="#374047"/>
<path d="M106.078 188.069C105.568 183.643 101.966 178.32 95.9381 173.082C89.4005 167.401 80.3005 162.003 69.6219 157.473C64.4251 155.268 60.2846 151.394 57.3166 145.958C54.9489 141.622 53.3181 136.288 52.4707 130.105C51.0292 119.593 52.3714 110.129 52.3852 110.034L52.8367 110.1C52.8229 110.194 51.4892 119.603 52.9236 130.052C54.2426 139.664 58.2415 152.149 69.8 157.053C80.5223 161.602 89.6641 167.026 96.2373 172.737C102.352 178.051 106.008 183.477 106.532 188.017L106.078 188.069Z" fill="#C5D893"/>
<path d="M312.813 136.572L312.36 136.528C312.365 136.471 312.94 130.599 316.04 123.47C317.861 119.283 320.184 115.483 322.945 112.178C326.397 108.044 330.548 104.676 335.28 102.168C345.887 96.5459 351.148 89.3291 353.695 84.2647C356.449 78.7877 356.704 74.5983 356.706 74.556L357.162 74.581C357.16 74.6232 356.899 78.9083 354.102 84.4694C352.463 87.7318 350.283 90.7921 347.623 93.5688C344.304 97.0359 340.222 100.064 335.495 102.571C324.893 108.19 319.291 117.136 316.458 123.653C313.387 130.715 312.819 136.514 312.813 136.572Z" fill="#C5D893"/>
<path d="M209.304 131.465L209.16 131.898C209.105 131.88 203.515 129.99 197.27 125.357C193.602 122.635 190.425 119.511 187.829 116.072C184.582 111.772 182.238 106.964 180.863 101.783C177.781 90.1732 171.938 83.4106 167.58 79.7833C162.866 75.8602 158.842 74.6632 158.802 74.6521L158.93 74.2141C158.971 74.2252 163.085 75.4493 167.872 79.4331C170.679 81.7694 173.168 84.587 175.273 87.8061C177.9 91.8273 179.929 96.4898 181.302 101.666C184.383 113.27 191.834 120.755 197.542 124.991C203.729 129.581 209.249 131.447 209.304 131.465Z" fill="#C5D893"/>
<path d="M166.604 192.318C159.385 186.319 156.69 180.71 152.223 171.415C150.913 168.687 149.428 165.595 147.639 162.117C143.675 154.406 136.577 150.631 131.321 148.822C125.61 146.857 120.775 146.72 120.726 146.718L120.738 146.262C120.786 146.263 125.68 146.4 131.456 148.386C134.852 149.553 137.885 151.121 140.474 153.048C143.715 155.458 146.262 158.44 148.044 161.907C149.836 165.393 151.322 168.487 152.634 171.218C157.074 180.456 159.753 186.032 166.896 191.967L166.604 192.318Z" fill="#C5D893"/>
<path d="M312.93 54.4786C308.516 62.7687 303.563 66.5454 295.358 72.8044C292.95 74.6409 290.221 76.7223 287.172 79.1805C280.418 84.6263 278.16 92.3464 277.454 97.8639C276.689 103.859 277.538 108.626 277.546 108.674L277.097 108.756C277.088 108.708 276.227 103.883 276.999 97.8207C277.453 94.2572 278.374 90.9659 279.737 88.0384C281.443 84.3743 283.847 81.2744 286.885 78.8256C289.937 76.3643 292.67 74.2806 295.08 72.4415C303.237 66.2217 308.159 62.4663 312.526 54.264L312.93 54.4786Z" fill="#C5D893"/>
<path d="M301.779 205.314L301.644 204.878C301.711 204.858 308.418 202.773 316.148 197.827C323.272 193.268 332.75 185.275 337.44 173.085C339.388 168.026 341.014 163.536 342.45 159.575C347.864 144.631 350.845 136.399 359.857 127.394C371.109 116.149 377.321 102.959 377.383 102.828L377.796 103.02C377.735 103.153 371.487 116.415 360.179 127.715C351.24 136.65 348.27 144.847 342.878 159.73C341.443 163.694 339.816 168.185 337.867 173.249C335.775 178.686 332.574 183.756 328.354 188.317C324.982 191.963 320.954 195.295 316.382 198.218C308.602 203.195 301.846 205.294 301.779 205.314Z" fill="#C5D893"/>
<path d="M338.124 114.342C338.124 114.342 325.119 123.65 320.796 138.966C320.796 138.966 323.489 138.821 330.031 131.363C336.573 123.903 337.113 117.801 338.124 114.342Z" fill="#F5B43C"/>
<path d="M159.03 145.806C159.03 145.806 163.274 161.296 176.193 170.658C176.193 170.658 176.993 168.066 172.243 159.316C167.493 150.567 161.935 147.953 159.03 145.806Z" fill="#F5B43C"/>
<path d="M89.5448 138.975C89.5448 138.975 93.7753 154.452 106.651 163.805C106.651 163.805 107.448 161.215 102.714 152.474C97.9804 143.732 92.4402 141.12 89.5448 138.975Z" fill="#F5B43C"/>
<path d="M264.708 109.554C264.708 109.554 249.092 115.376 245.328 132.582C245.328 132.582 250.131 132.476 257.297 125.607C264.462 118.738 264.704 115.148 264.708 109.554Z" fill="#F4997E"/>
<path d="M157.042 101.839C156.741 102.515 156.933 102.63 156.549 103.375C156.165 104.119 155.9 104.473 155.9 104.473C155.724 104.736 155.631 104.582 155.531 104.535C155.433 104.489 155.626 103.718 155.805 103.441C155.985 103.163 155.943 102.891 156.026 102.557C156.109 102.224 156.483 101.786 156.643 101.495C156.804 101.203 157.344 101.162 157.042 101.839ZM148.848 103.76C148.268 103.526 148.558 103.156 149.011 103.109C149.463 103.062 149.658 102.99 150.404 103.001C151.15 103.012 152.001 103.138 152.177 103.226C152.354 103.315 152.006 103.648 151.371 103.804C150.738 103.959 148.848 103.76 148.848 103.76ZM156.861 109.896C156.887 110.058 156.56 110.042 156.28 110.281C156 110.52 155.165 110.864 155.165 110.864C154.776 110.831 154.818 110.488 154.994 110.134C155.169 109.78 155.761 109.973 156.072 109.697C156.384 109.422 156.835 109.734 156.861 109.896ZM154.002 96.4455C154.079 95.602 154.493 94.7428 153.965 93.4152C153.437 92.0867 151.299 91.1162 151.167 91.1162C151.034 91.1162 151.18 93.311 151.132 94.8273C151.086 96.3427 150.844 96.9127 150.688 96.8738C150.533 96.8349 150.509 96.3977 150.175 96.0142C149.841 95.6306 149.399 93.826 149.336 93.5448C149.275 93.2632 147.712 92.637 147.253 92.4885C146.793 92.3397 145.845 91.2378 145.394 90.9253C144.944 90.6115 145.363 91.4483 145.246 92.3155C145.129 93.1832 145.005 93.4174 145.105 94.3387C145.205 95.2614 145.143 95.7763 145.252 96.2681C145.36 96.7602 146.596 97.2385 147.732 97.724C148.867 98.2081 149.302 98.5832 149.209 98.6931C149.116 98.8017 148.19 98.8017 147.77 98.8956C147.35 98.9882 145.459 99.0114 144.581 98.9564C143.702 98.9001 142.831 98.947 142.737 99.0557C142.644 99.1656 143.274 99.8214 143.701 100.361C144.128 100.9 144.765 102.323 145.131 102.315C145.497 102.308 146.787 102.7 147.464 102.903C148.14 103.107 147.727 103.7 147.448 103.763C147.168 103.824 144.516 103.589 144.274 103.628C144.033 103.667 143.9 104.198 143.939 104.306C143.978 104.416 144.328 105.002 144.844 105.319C145.36 105.635 146.115 106.581 146.365 107.042C146.613 107.503 147.741 107.621 148.191 107.802C148.643 107.982 148.994 107.771 149.46 107.49C149.927 107.209 150.386 107.093 151.102 107.007C151.817 106.921 151.949 107.186 151.443 107.491C150.937 107.795 150.362 107.85 149.6 108.122C148.837 108.396 147.763 109.52 147.763 109.52C147.763 109.52 147.763 109.52 148.129 109.779C148.494 110.036 148.634 110.27 149.139 110.763C149.644 111.256 150.695 111.686 150.912 111.741C151.13 111.796 151.636 111.624 152.103 111.343C152.57 111.061 153.918 110.306 154.384 110.689C154.85 111.071 154.569 111.399 153.906 111.797C153.246 112.194 152.319 112.461 152.11 112.64C151.899 112.82 153.003 113.43 153.828 113.969C154.652 114.509 155.772 114.526 156.962 113.596C158.153 112.667 159.087 110.778 159.087 110.778C159.087 110.778 160.597 110.56 161.367 109.99C162.137 109.42 162.783 108.287 163.089 106.671C163.393 105.053 163.245 104.584 162.787 103.772C162.329 102.959 161.926 101.263 161.926 101.263C161.926 101.263 161.396 101.927 160.648 103.334C159.901 104.739 159.324 105.988 159.176 106.051C159.028 106.113 158.997 105.441 159.169 104.754C159.342 104.067 160.041 103.114 160.556 102.247C161.07 101.38 161.271 100.833 161.094 100.49C160.915 100.146 160.581 98.8326 160.41 98.3248C160.239 97.8179 158.879 96.3794 158.879 96.3794C158.879 96.3794 158.879 96.3794 158.738 96.9413C158.598 97.5041 158.278 98.7848 157.928 99.9255C157.576 101.065 157.281 100.925 157.094 100.878C156.907 100.831 157.243 100.151 157.462 99.2769C157.68 98.4012 157.774 98.0271 157.704 97.2457C157.635 96.4639 157.681 96.4089 157.277 95.7763C156.874 95.1434 155.863 93.8926 155.637 93.7357C155.412 93.5802 154.976 93.603 155.084 94.0951C155.193 94.5873 155.069 94.9543 154.834 95.8917C154.6 96.8291 154.538 97.7432 154.585 98.2193C154.63 98.6967 154.288 98.8764 153.892 98.8764C153.495 98.8751 153.924 97.2899 154.002 96.4455Z" fill="#C5D893"/>
<path d="M85.878 103.715C85.878 103.715 73.0027 103.93 67.7017 93.9746L73.5954 94.8479C73.5954 94.8479 61.7857 88.1709 61.0158 77.1062L66.2887 79.1194C66.2887 79.1194 57.8425 70.0654 61.5515 59.2536C61.5515 59.2536 71.987 65.0436 74.9305 74.6503C74.9305 74.6503 74.9563 70.4109 75.0298 66.8622C75.0298 66.8622 83.02 71.8791 85.5668 84.1648L86.5389 77.6009C86.5389 77.6009 97.6997 102.873 85.878 103.715Z" fill="#F5B43C"/>
<path d="M135.811 209.663C135.592 209.663 135.376 209.68 135.165 209.712C135.169 209.638 135.171 209.562 135.171 209.486C135.171 207.182 133.3 205.314 130.991 205.314C128.682 205.314 126.81 207.182 126.81 209.486C126.81 209.552 126.812 209.619 126.816 209.685C126.675 209.67 126.533 209.663 126.389 209.663C124.08 209.663 122.208 211.53 122.208 213.835C122.208 216.139 124.08 218.007 126.389 218.007C126.626 218.007 126.859 217.987 127.085 217.948C127.521 219.79 129.177 221.16 131.154 221.16C133.126 221.16 134.779 219.798 135.22 217.966C135.413 217.993 135.61 218.007 135.811 218.007C138.12 218.007 139.992 216.139 139.992 213.835C139.992 211.53 138.12 209.663 135.811 209.663Z" fill="#F4997E"/>
<path d="M320.605 173.639C320.386 173.639 320.17 173.656 319.959 173.688C319.963 173.614 319.965 173.538 319.965 173.463C319.965 171.159 318.094 169.29 315.785 169.29C313.476 169.29 311.604 171.159 311.604 173.463C311.604 173.529 311.606 173.595 311.609 173.661C311.469 173.646 311.327 173.639 311.183 173.639C308.874 173.639 307.002 175.507 307.002 177.812C307.002 180.116 308.874 181.983 311.183 181.983C311.42 181.983 311.653 181.964 311.879 181.924C312.315 183.766 313.971 185.136 315.948 185.136C317.92 185.136 319.573 183.774 320.014 181.942C320.207 181.969 320.404 181.983 320.605 181.983C322.914 181.983 324.786 180.116 324.786 177.812C324.786 175.507 322.914 173.639 320.605 173.639Z" fill="#F4997E"/>
<path d="M265.67 67.3423C265.51 67.3423 265.355 67.3548 265.201 67.3789C265.205 67.324 265.206 67.2692 265.206 67.2144C265.206 65.5404 263.851 64.1821 262.178 64.1821C260.506 64.1821 259.151 65.5404 259.151 67.2144C259.151 67.2625 259.152 67.3102 259.154 67.3583C259.051 67.3481 258.949 67.3423 258.844 67.3423C257.172 67.3423 255.816 68.6993 255.816 70.3733C255.816 72.0477 257.172 73.4056 258.844 73.4056C259.016 73.4056 259.185 73.3908 259.349 73.3632C259.665 74.701 260.864 75.6961 262.297 75.6961C263.724 75.6961 264.921 74.7064 265.241 73.3748C265.38 73.394 265.524 73.4056 265.67 73.4056C267.343 73.4056 268.698 72.0477 268.698 70.3733C268.698 68.6993 267.343 67.3423 265.67 67.3423Z" fill="#F4997E"/>
<path d="M179.896 128.033C179.728 128.033 179.562 128.045 179.402 128.07C179.405 128.013 179.406 127.955 179.406 127.897C179.406 126.14 177.979 124.716 176.218 124.716C174.456 124.716 173.029 126.14 173.029 127.897C173.029 127.949 173.03 127.999 173.032 128.049C172.925 128.039 172.817 128.033 172.706 128.033C170.945 128.033 169.518 129.457 169.518 131.214C169.518 132.971 170.945 134.396 172.706 134.396C172.888 134.396 173.066 134.381 173.239 134.351C173.571 135.756 174.834 136.8 176.342 136.8C177.847 136.8 179.106 135.762 179.443 134.364C179.591 134.386 179.741 134.396 179.896 134.396C181.657 134.396 183.084 132.971 183.084 131.214C183.084 129.457 181.657 128.033 179.896 128.033Z" fill="#F4997E"/>
<defs>
<linearGradient id="paint0_linear_33_571" x1="156.714" y1="260.69" x2="98.1203" y2="384.904" gradientUnits="userSpaceOnUse">
<stop stop-color="#A4C049"/>
<stop offset="0.125" stop-color="#A4C049"/>
<stop offset="0.1875" stop-color="#A4C049"/>
<stop offset="0.21875" stop-color="#A4C049"/>
<stop offset="0.226562" stop-color="#A4C049"/>
<stop offset="0.230469" stop-color="#A2BF49"/>
<stop offset="0.234375" stop-color="#A1BF49"/>
<stop offset="0.238281" stop-color="#A1BF49"/>
<stop offset="0.242188" stop-color="#A0BF49"/>
<stop offset="0.246094" stop-color="#9FBE49"/>
<stop offset="0.25" stop-color="#9EBE49"/>
<stop offset="0.253906" stop-color="#9DBE49"/>
<stop offset="0.257812" stop-color="#9DBE49"/>
<stop offset="0.261719" stop-color="#9CBD49"/>
<stop offset="0.265625" stop-color="#9BBD49"/>
<stop offset="0.269531" stop-color="#9ABD49"/>
<stop offset="0.273438" stop-color="#99BD49"/>
<stop offset="0.277344" stop-color="#99BC49"/>
<stop offset="0.28125" stop-color="#98BC49"/>
<stop offset="0.285156" stop-color="#97BC49"/>
<stop offset="0.289062" stop-color="#96BC49"/>
<stop offset="0.292969" stop-color="#95BB49"/>
<stop offset="0.296875" stop-color="#95BB4A"/>
<stop offset="0.300781" stop-color="#94BB4A"/>
<stop offset="0.304687" stop-color="#93BB4A"/>
<stop offset="0.308594" stop-color="#92BA4A"/>
<stop offset="0.3125" stop-color="#91BA4A"/>
<stop offset="0.316406" stop-color="#91BA4A"/>
<stop offset="0.320312" stop-color="#90BA4A"/>
<stop offset="0.324219" stop-color="#8FB94A"/>
<stop offset="0.328125" stop-color="#8EB94A"/>
<stop offset="0.332031" stop-color="#8DB94A"/>
<stop offset="0.335938" stop-color="#8DB94A"/>
<stop offset="0.339844" stop-color="#8CB84A"/>
<stop offset="0.34375" stop-color="#8BB84A"/>
<stop offset="0.347656" stop-color="#8AB84A"/>
<stop offset="0.351562" stop-color="#89B84A"/>
<stop offset="0.355469" stop-color="#89B74A"/>
<stop offset="0.359375" stop-color="#88B74A"/>
<stop offset="0.363281" stop-color="#87B74A"/>
<stop offset="0.367188" stop-color="#86B64A"/>
<stop offset="0.371094" stop-color="#85B64A"/>
<stop offset="0.375" stop-color="#85B64A"/>
<stop offset="0.378906" stop-color="#84B64A"/>
<stop offset="0.382812" stop-color="#83B54A"/>
<stop offset="0.386719" stop-color="#82B54A"/>
<stop offset="0.390625" stop-color="#81B54A"/>
<stop offset="0.394531" stop-color="#81B54A"/>
<stop offset="0.398438" stop-color="#80B44A"/>
<stop offset="0.402344" stop-color="#7FB44A"/>
<stop offset="0.40625" stop-color="#7EB44A"/>
<stop offset="0.410156" stop-color="#7DB44A"/>
<stop offset="0.414062" stop-color="#7DB34A"/>
<stop offset="0.417969" stop-color="#7CB34A"/>
<stop offset="0.421875" stop-color="#7BB34A"/>
<stop offset="0.425781" stop-color="#7AB34A"/>
<stop offset="0.429688" stop-color="#79B24A"/>
<stop offset="0.433594" stop-color="#79B24A"/>
<stop offset="0.4375" stop-color="#78B24A"/>
<stop offset="0.441406" stop-color="#77B24A"/>
<stop offset="0.445312" stop-color="#76B14B"/>
<stop offset="0.449219" stop-color="#75B14B"/>
<stop offset="0.453125" stop-color="#75B14B"/>
<stop offset="0.457031" stop-color="#74B14B"/>
<stop offset="0.460938" stop-color="#73B04B"/>
<stop offset="0.464844" stop-color="#72B04B"/>
<stop offset="0.46875" stop-color="#71B04B"/>
<stop offset="0.472656" stop-color="#71B04B"/>
<stop offset="0.476562" stop-color="#70AF4B"/>
<stop offset="0.480469" stop-color="#6FAF4B"/>
<stop offset="0.484375" stop-color="#6EAF4B"/>
<stop offset="0.488281" stop-color="#6DAF4B"/>
<stop offset="0.492188" stop-color="#6DAE4B"/>
<stop offset="0.496094" stop-color="#6CAE4B"/>
<stop offset="0.5" stop-color="#6BAE4B"/>
<stop offset="0.503906" stop-color="#6AAE4B"/>
<stop offset="0.507812" stop-color="#69AD4B"/>
<stop offset="0.511719" stop-color="#69AD4B"/>
<stop offset="0.515625" stop-color="#68AD4B"/>
<stop offset="0.519531" stop-color="#67AC4B"/>
<stop offset="0.523438" stop-color="#66AC4B"/>
<stop offset="0.527344" stop-color="#65AC4B"/>
<stop offset="0.53125" stop-color="#65AC4B"/>
<stop offset="0.535156" stop-color="#64AB4B"/>
<stop offset="0.539062" stop-color="#63AB4B"/>
<stop offset="0.542969" stop-color="#62AB4B"/>
<stop offset="0.546875" stop-color="#61AB4B"/>
<stop offset="0.550781" stop-color="#61AA4B"/>
<stop offset="0.554688" stop-color="#60AA4B"/>
<stop offset="0.558594" stop-color="#5FAA4B"/>
<stop offset="0.5625" stop-color="#5EAA4B"/>
<stop offset="0.566406" stop-color="#5DA94B"/>
<stop offset="0.570312" stop-color="#5DA94B"/>
<stop offset="0.574219" stop-color="#5CA94B"/>
<stop offset="0.578125" stop-color="#5BA94B"/>
<stop offset="0.582031" stop-color="#5AA84B"/>
<stop offset="0.585938" stop-color="#59A84B"/>
<stop offset="0.589844" stop-color="#59A84B"/>
<stop offset="0.59375" stop-color="#58A84B"/>
<stop offset="0.597656" stop-color="#57A74C"/>
<stop offset="0.601562" stop-color="#56A74C"/>
<stop offset="0.605469" stop-color="#55A74C"/>
<stop offset="0.609375" stop-color="#55A74C"/>
<stop offset="0.613281" stop-color="#54A64C"/>
<stop offset="0.617188" stop-color="#53A64C"/>
<stop offset="0.621094" stop-color="#52A64C"/>
<stop offset="0.625" stop-color="#51A64C"/>
<stop offset="0.628906" stop-color="#51A54C"/>
<stop offset="0.632812" stop-color="#50A54C"/>
<stop offset="0.636719" stop-color="#4FA54C"/>
<stop offset="0.640625" stop-color="#4EA54C"/>
<stop offset="0.644531" stop-color="#4DA44C"/>
<stop offset="0.648437" stop-color="#4DA44C"/>
<stop offset="0.652344" stop-color="#4CA44C"/>
<stop offset="0.65625" stop-color="#4BA44C"/>
<stop offset="0.660156" stop-color="#4AA34C"/>
<stop offset="0.664062" stop-color="#49A34C"/>
<stop offset="0.667969" stop-color="#49A34C"/>
<stop offset="0.671875" stop-color="#48A24C"/>
<stop offset="0.675781" stop-color="#47A24C"/>
<stop offset="0.679687" stop-color="#46A24C"/>
<stop offset="0.683594" stop-color="#45A24C"/>
<stop offset="0.6875" stop-color="#45A14C"/>
<stop offset="0.691406" stop-color="#44A14C"/>
<stop offset="0.695312" stop-color="#43A14C"/>
<stop offset="0.699219" stop-color="#42A14C"/>
<stop offset="0.703125" stop-color="#41A04C"/>
<stop offset="0.707031" stop-color="#41A04C"/>
<stop offset="0.710937" stop-color="#40A04C"/>
<stop offset="0.714844" stop-color="#3FA04C"/>
<stop offset="0.71875" stop-color="#3E9F4C"/>
<stop offset="0.722656" stop-color="#3D9F4C"/>
<stop offset="0.726562" stop-color="#3D9F4C"/>
<stop offset="0.730469" stop-color="#3C9F4C"/>
<stop offset="0.734375" stop-color="#3B9E4C"/>
<stop offset="0.738281" stop-color="#3A9E4C"/>
<stop offset="0.742187" stop-color="#399E4C"/>
<stop offset="0.746094" stop-color="#389E4D"/>
<stop offset="0.75" stop-color="#389D4D"/>
<stop offset="0.753906" stop-color="#379D4D"/>
<stop offset="0.757813" stop-color="#369D4D"/>
<stop offset="0.761719" stop-color="#359D4D"/>
<stop offset="0.765625" stop-color="#349C4D"/>
<stop offset="0.769531" stop-color="#349C4D"/>
<stop offset="0.773438" stop-color="#339C4D"/>
<stop offset="0.777344" stop-color="#329C4D"/>
<stop offset="0.78125" stop-color="#319B4D"/>
<stop offset="0.785156" stop-color="#309B4D"/>
<stop offset="0.789063" stop-color="#309B4D"/>
<stop offset="0.792969" stop-color="#2F9B4D"/>
<stop offset="0.796875" stop-color="#2E9A4D"/>
<stop offset="0.800781" stop-color="#2D9A4D"/>
<stop offset="0.804688" stop-color="#2C9A4D"/>
<stop offset="0.808594" stop-color="#2C9A4D"/>
<stop offset="0.8125" stop-color="#2B994D"/>
<stop offset="0.875" stop-color="#2A994D"/>
<stop offset="1" stop-color="#2A994D"/>
</linearGradient>
</defs>
</svg>
