<svg width="144" height="37" viewBox="0 0 144 37" fill="none" xmlns="http://www.w3.org/2000/svg">
<path d="M54.0569 19.1081C53.2642 19.1081 52.5539 18.9794 51.9259 18.722C51.2979 18.4647 50.7935 18.0838 50.4126 17.5794C50.042 17.0749 49.8464 16.4675 49.8258 15.7572H52.6362C52.6774 16.1587 52.8164 16.4675 53.0532 16.6837C53.2899 16.8896 53.5988 16.9926 53.9797 16.9926C54.3709 16.9926 54.6797 16.9051 54.9062 16.7301C55.1327 16.5448 55.2459 16.2925 55.2459 15.9734C55.2459 15.7058 55.1532 15.4844 54.9679 15.3094C54.7929 15.1344 54.5716 14.9903 54.304 14.877C54.0466 14.7638 53.676 14.6351 53.1921 14.491C52.4921 14.2748 51.9208 14.0586 51.4781 13.8424C51.0354 13.6263 50.6545 13.3071 50.3354 12.8851C50.0163 12.463 49.8567 11.9122 49.8567 11.2328C49.8567 10.2239 50.2222 9.43639 50.9531 8.87019C51.684 8.29369 52.6362 8.00545 53.8098 8.00545C55.004 8.00545 55.9665 8.29369 56.6974 8.87019C57.4283 9.43639 57.8195 10.2291 57.871 11.2482H55.0143C54.9937 10.8982 54.865 10.6254 54.6282 10.4298C54.3915 10.2239 54.0878 10.121 53.7172 10.121C53.398 10.121 53.1407 10.2085 52.9451 10.3835C52.7495 10.5482 52.6517 10.7901 52.6517 11.1092C52.6517 11.4593 52.8164 11.7321 53.1458 11.9277C53.4752 12.1233 53.99 12.3343 54.69 12.5608C55.39 12.7975 55.9562 13.024 56.3886 13.2402C56.8313 13.4564 57.2122 13.7704 57.5313 14.1822C57.8504 14.5939 58.01 15.1241 58.01 15.7727C58.01 16.3903 57.8504 16.9514 57.5313 17.4558C57.2224 17.9603 56.7695 18.3617 56.1724 18.6603C55.5753 18.9588 54.8701 19.1081 54.0569 19.1081ZM64.4374 16.7609V19H63.0939C62.1366 19 61.3902 18.7684 60.8549 18.3051C60.3196 17.8316 60.0519 17.0646 60.0519 16.0043V12.5762H59.0019V10.3835H60.0519V8.2834H62.6925V10.3835H64.4219V12.5762H62.6925V16.0352C62.6925 16.2925 62.7542 16.4778 62.8778 16.5911C63.0013 16.7043 63.2072 16.7609 63.4954 16.7609H64.4374ZM68.5488 11.8196C68.8576 11.346 69.2436 10.9754 69.7069 10.7078C70.1701 10.4298 70.6849 10.2908 71.2511 10.2908V13.0858H70.5253C69.8665 13.0858 69.3723 13.2299 69.0429 13.5182C68.7135 13.7961 68.5488 14.2903 68.5488 15.0006V19H65.9082V10.3835H68.5488V11.8196ZM80.6356 14.5528C80.6356 14.7998 80.6201 15.0572 80.5892 15.3249H74.6133C74.6545 15.8602 74.8243 16.272 75.1229 16.5602C75.4317 16.8381 75.8074 16.9771 76.2501 16.9771C76.909 16.9771 77.3671 16.6992 77.6244 16.1433H80.4348C80.2907 16.7095 80.0282 17.219 79.6473 17.672C79.2767 18.125 78.8083 18.4801 78.2421 18.7375C77.6759 18.9949 77.0428 19.1235 76.3428 19.1235C75.4986 19.1235 74.7471 18.9434 74.0883 18.5831C73.4294 18.2228 72.9147 17.708 72.5441 17.0389C72.1735 16.3697 71.9882 15.5874 71.9882 14.6917C71.9882 13.7961 72.1683 13.0137 72.5286 12.3446C72.8992 11.6754 73.414 11.1607 74.0728 10.8004C74.7317 10.4401 75.4883 10.2599 76.3428 10.2599C77.1766 10.2599 77.9178 10.435 78.5664 10.785C79.2149 11.135 79.7194 11.6343 80.0797 12.2828C80.4503 12.9314 80.6356 13.688 80.6356 14.5528ZM77.9333 13.8579C77.9333 13.4049 77.7788 13.0446 77.47 12.777C77.1612 12.5093 76.7751 12.3755 76.3119 12.3755C75.8692 12.3755 75.4935 12.5042 75.1846 12.7615C74.8861 13.0189 74.7008 13.3843 74.6287 13.8579H77.9333ZM85.5339 19.1235C84.7824 19.1235 84.1132 18.9949 83.5264 18.7375C82.9397 18.4801 82.4764 18.1301 82.1367 17.6874C81.797 17.2345 81.6065 16.7301 81.5653 16.1742H84.175C84.2059 16.4727 84.3449 16.7146 84.5919 16.8999C84.839 17.0852 85.1427 17.1779 85.503 17.1779C85.8324 17.1779 86.0846 17.1161 86.2596 16.9926C86.4449 16.8587 86.5376 16.6889 86.5376 16.483C86.5376 16.2359 86.4089 16.0558 86.1515 15.9425C85.8942 15.819 85.4773 15.6852 84.9008 15.541C84.2831 15.3969 83.7684 15.2476 83.3566 15.0932C82.9448 14.9285 82.5896 14.6763 82.2911 14.3366C81.9926 13.9866 81.8433 13.5182 81.8433 12.9314C81.8433 12.4372 81.9771 11.9894 82.2448 11.5879C82.5227 11.1762 82.9242 10.8519 83.4492 10.6151C83.9846 10.3783 84.6177 10.2599 85.3486 10.2599C86.4295 10.2599 87.2788 10.5276 87.8965 11.0629C88.5244 11.5982 88.8847 12.3086 88.9774 13.1939H86.5376C86.4964 12.8953 86.3626 12.6586 86.1361 12.4836C85.9199 12.3086 85.6317 12.2211 85.2714 12.2211C84.9625 12.2211 84.7258 12.2828 84.561 12.4064C84.3963 12.5196 84.314 12.6792 84.314 12.8851C84.314 13.1321 84.4427 13.3174 84.7 13.441C84.9677 13.5645 85.3795 13.688 85.9354 13.8116C86.5736 13.9763 87.0935 14.141 87.495 14.3057C87.8965 14.4601 88.2465 14.7175 88.545 15.0778C88.8539 15.4278 89.0134 15.9013 89.0237 16.4984C89.0237 17.0029 88.8796 17.4558 88.5914 17.8573C88.3134 18.2485 87.9068 18.5573 87.3715 18.7838C86.8464 19.0103 86.2339 19.1235 85.5339 19.1235ZM94.1445 19.1235C93.393 19.1235 92.7238 18.9949 92.137 18.7375C91.5503 18.4801 91.087 18.1301 90.7473 17.6874C90.4076 17.2345 90.2171 16.7301 90.1759 16.1742H92.7856C92.8165 16.4727 92.9555 16.7146 93.2025 16.8999C93.4496 17.0852 93.7533 17.1779 94.1136 17.1779C94.443 17.1779 94.6952 17.1161 94.8702 16.9926C95.0555 16.8587 95.1482 16.6889 95.1482 16.483C95.1482 16.2359 95.0195 16.0558 94.7622 15.9425C94.5048 15.819 94.0879 15.6852 93.5114 15.541C92.8937 15.3969 92.379 15.2476 91.9672 15.0932C91.5554 14.9285 91.2002 14.6763 90.9017 14.3366C90.6032 13.9866 90.4539 13.5182 90.4539 12.9314C90.4539 12.4372 90.5877 11.9894 90.8554 11.5879C91.1333 11.1762 91.5348 10.8519 92.0598 10.6151C92.5952 10.3783 93.2283 10.2599 93.9592 10.2599C95.0401 10.2599 95.8894 10.5276 96.5071 11.0629C97.135 11.5982 97.4953 12.3086 97.588 13.1939H95.1482C95.107 12.8953 94.9732 12.6586 94.7467 12.4836C94.5305 12.3086 94.2423 12.2211 93.882 12.2211C93.5731 12.2211 93.3364 12.2828 93.1716 12.4064C93.0069 12.5196 92.9246 12.6792 92.9246 12.8851C92.9246 13.1321 93.0533 13.3174 93.3106 13.441C93.5783 13.5645 93.9901 13.688 94.546 13.8116C95.1842 13.9763 95.7041 14.141 96.1056 14.3057C96.5071 14.4601 96.8571 14.7175 97.1556 15.0778C97.4645 15.4278 97.624 15.9013 97.6343 16.4984C97.6343 17.0029 97.4902 17.4558 97.202 17.8573C96.924 18.2485 96.5174 18.5573 95.9821 18.7838C95.457 19.0103 94.8445 19.1235 94.1445 19.1235ZM105.998 17.0852H101.952L101.304 19H98.5395L102.462 8.15987H105.519L109.441 19H106.646L105.998 17.0852ZM105.318 15.0469L103.975 11.0784L102.647 15.0469H105.318ZM123.004 10.3835L120.672 19H117.754L116.395 13.4101L114.99 19H112.087L109.739 10.3835H112.38L113.6 16.5448L115.051 10.3835H117.846L119.313 16.5139L120.518 10.3835H123.004ZM123.486 14.6763C123.486 13.791 123.651 13.0137 123.98 12.3446C124.32 11.6754 124.778 11.1607 125.354 10.8004C125.931 10.4401 126.574 10.2599 127.285 10.2599C127.892 10.2599 128.422 10.3835 128.875 10.6306C129.338 10.8776 129.694 11.2019 129.941 11.6034V10.3835H132.581V19H129.941V17.7801C129.683 18.1816 129.323 18.5059 128.86 18.7529C128.407 19 127.877 19.1235 127.269 19.1235C126.569 19.1235 125.931 18.9434 125.354 18.5831C124.778 18.2125 124.32 17.6926 123.98 17.0235C123.651 16.344 123.486 15.5616 123.486 14.6763ZM129.941 14.6917C129.941 14.0329 129.755 13.513 129.385 13.1321C129.024 12.7512 128.582 12.5608 128.057 12.5608C127.532 12.5608 127.084 12.7512 126.713 13.1321C126.353 13.5027 126.173 14.0175 126.173 14.6763C126.173 15.3351 126.353 15.8602 126.713 16.2514C127.084 16.6323 127.532 16.8227 128.057 16.8227C128.582 16.8227 129.024 16.6323 129.385 16.2514C129.755 15.8705 129.941 15.3506 129.941 14.6917ZM143.293 10.3835L137.889 23.0921H135.047L137.024 18.7066L133.519 10.3835H136.468L138.46 15.7727L140.437 10.3835H143.293Z" fill="#0F4B59"/>
<path d="M81.8521 26.0224V26.4447H80.123V27.7858H81.5268V28.2081H80.123V30H79.6037V26.0224H81.8521ZM83.0614 26.3648C82.9625 26.3648 82.8788 26.3306 82.8103 26.2621C82.7418 26.1936 82.7076 26.1099 82.7076 26.011C82.7076 25.9121 82.7418 25.8284 82.8103 25.7599C82.8788 25.6914 82.9625 25.6572 83.0614 25.6572C83.1565 25.6572 83.2364 25.6914 83.3011 25.7599C83.3696 25.8284 83.4038 25.9121 83.4038 26.011C83.4038 26.1099 83.3696 26.1936 83.3011 26.2621C83.2364 26.3306 83.1565 26.3648 83.0614 26.3648ZM83.3125 26.8727V30H82.7932V26.8727H83.3125ZM86.0352 26.8156C86.4156 26.8156 86.7238 26.9317 86.9597 27.1637C87.1956 27.392 87.3135 27.723 87.3135 28.1567V30H86.7999V28.2309C86.7999 27.9189 86.7219 27.6812 86.5659 27.5176C86.4099 27.3502 86.1969 27.2665 85.9268 27.2665C85.6528 27.2665 85.4341 27.3521 85.2705 27.5233C85.1107 27.6945 85.0308 27.9437 85.0308 28.2709V30H84.5115V26.8727H85.0308V27.3178C85.1335 27.158 85.2724 27.0344 85.4474 26.9469C85.6262 26.8594 85.8221 26.8156 86.0352 26.8156ZM88.2816 28.4249C88.2816 28.1054 88.3463 27.8257 88.4757 27.586C88.605 27.3426 88.7819 27.1542 89.0064 27.0211C89.2347 26.8879 89.4896 26.8213 89.7711 26.8213C90.0146 26.8213 90.2409 26.8784 90.4502 26.9925C90.6594 27.1029 90.8192 27.2493 90.9296 27.432V25.777H91.4546V30H90.9296V29.4122C90.8268 29.5986 90.6747 29.7527 90.473 29.8745C90.2714 29.9924 90.0355 30.0514 89.7654 30.0514C89.4877 30.0514 89.2347 29.9829 89.0064 29.8459C88.7819 29.709 88.605 29.5168 88.4757 29.2695C88.3463 29.0222 88.2816 28.7407 88.2816 28.4249ZM90.9296 28.4306C90.9296 28.1948 90.882 27.9893 90.7869 27.8143C90.6918 27.6393 90.5624 27.5062 90.3988 27.4148C90.239 27.3197 90.0621 27.2722 89.8681 27.2722C89.6741 27.2722 89.4972 27.3178 89.3374 27.4091C89.1776 27.5004 89.0501 27.6336 88.955 27.8086C88.8599 27.9836 88.8124 28.1891 88.8124 28.4249C88.8124 28.6646 88.8599 28.8739 88.955 29.0527C89.0501 29.2277 89.1776 29.3627 89.3374 29.4579C89.4972 29.5492 89.6741 29.5948 89.8681 29.5948C90.0621 29.5948 90.239 29.5492 90.3988 29.4579C90.5624 29.3627 90.6918 29.2277 90.7869 29.0527C90.882 28.8739 90.9296 28.6665 90.9296 28.4306ZM96.8325 29.1155H95.0977L94.7781 30H94.2302L95.6683 26.0452H96.2676L97.6999 30H97.1521L96.8325 29.1155ZM96.6841 28.6932L95.9651 26.6844L95.246 28.6932H96.6841ZM105.475 26.0224L104.322 30H103.74L102.816 26.7985L101.857 30L101.281 30.0057L100.168 26.0224H100.721L101.589 29.3951L102.547 26.0224H103.13L104.043 29.3837L104.916 26.0224H105.475ZM106.163 28.4249C106.163 28.1054 106.228 27.8257 106.357 27.586C106.487 27.3426 106.663 27.1542 106.888 27.0211C107.116 26.8879 107.369 26.8213 107.647 26.8213C107.921 26.8213 108.159 26.8803 108.36 26.9983C108.562 27.1162 108.712 27.2646 108.811 27.4434V26.8727H109.336V30H108.811V29.4179C108.708 29.6005 108.554 29.7527 108.349 29.8745C108.147 29.9924 107.911 30.0514 107.641 30.0514C107.363 30.0514 107.112 29.9829 106.888 29.8459C106.663 29.709 106.487 29.5168 106.357 29.2695C106.228 29.0222 106.163 28.7407 106.163 28.4249ZM108.811 28.4306C108.811 28.1948 108.764 27.9893 108.668 27.8143C108.573 27.6393 108.444 27.5062 108.28 27.4148C108.121 27.3197 107.944 27.2722 107.75 27.2722C107.556 27.2722 107.379 27.3178 107.219 27.4091C107.059 27.5004 106.932 27.6336 106.837 27.8086C106.741 27.9836 106.694 28.1891 106.694 28.4249C106.694 28.6646 106.741 28.8739 106.837 29.0527C106.932 29.2277 107.059 29.3627 107.219 29.4579C107.379 29.5492 107.556 29.5948 107.75 29.5948C107.944 29.5948 108.121 29.5492 108.28 29.4579C108.444 29.3627 108.573 29.2277 108.668 29.0527C108.764 28.8739 108.811 28.6665 108.811 28.4306ZM113.221 26.8727L111.338 31.4723H110.801L111.418 29.9658L110.157 26.8727H110.733L111.715 29.4065L112.685 26.8727H113.221Z" fill="#63CCAB"/>
<rect x="12.0745" width="34.3502" height="17.0759" rx="8.53793" transform="rotate(45 12.0745 0)" fill="#60ED7B"/>
<rect x="12.3115" y="24.2893" width="34.3502" height="17.0759" rx="8.53793" transform="rotate(-45 12.3115 24.2893)" fill="#3499A3"/>
<path d="M24.3951 12.3209L36.3637 24.2895L30.2736 30.3796C26.9685 33.6847 21.61 33.6847 18.305 30.3796V30.3796C14.9999 27.0746 14.9999 21.7161 18.305 18.411L24.3951 12.3209Z" fill="#287687"/>
<rect x="12.0745" width="34.3502" height="17.0759" rx="8.53793" transform="rotate(45 12.0745 0)" fill="#60ED7B" fill-opacity="0.5"/>
</svg>
